<svg xmlns="http://www.w3.org/2000/svg"
	xmlns:xlink="http://www.w3.org/1999/xlink" width="2160" zoomAndPan="magnify" viewBox="0 0 1620 809.999993" height="1080" preserveAspectRatio="xMidYMid meet" version="1.0">
	<defs>
		<clipPath id="d09fb22d83">
			<path d="M 44.398438 246 L 172 246 L 172 492 L 44.398438 492 Z M 44.398438 246 " clip-rule="nonzero"/>
		</clipPath>
		<clipPath id="87bc312964">
			<path d="M 1446 251 L 1575.898438 251 L 1575.898438 497 L 1446 497 Z M 1446 251 " clip-rule="nonzero"/>
		</clipPath>
	</defs>
	<path fill="#c46929" d="M 682.949219 370.765625 C 682.949219 302.503906 741.066406 244.851562 809.386719 245.097656 C 877.707031 245.339844 935.429688 303.816406 934.789062 372.046875 C 934.757812 374.105469 934.675781 376.160156 934.546875 378.214844 C 934.414062 380.265625 934.234375 382.316406 934.003906 384.359375 C 933.773438 386.40625 933.492188 388.441406 933.164062 390.472656 C 932.835938 392.503906 932.457031 394.527344 932.03125 396.539062 C 931.605469 398.550781 931.128906 400.550781 930.605469 402.542969 C 930.078125 404.53125 929.507812 406.507812 928.886719 408.46875 C 928.269531 410.429688 927.601562 412.375 926.886719 414.304688 C 926.171875 416.234375 925.410156 418.144531 924.605469 420.035156 C 923.796875 421.929688 922.945312 423.800781 922.046875 425.648438 C 921.148438 427.5 920.207031 429.328125 919.21875 431.132812 C 918.234375 432.9375 917.203125 434.71875 916.128906 436.472656 C 915.058594 438.226562 913.941406 439.957031 912.785156 441.65625 C 911.628906 443.359375 910.429688 445.027344 909.195312 446.671875 C 907.957031 448.3125 906.679688 449.925781 905.363281 451.507812 C 904.046875 453.085938 902.691406 454.632812 901.300781 456.148438 C 899.910156 457.664062 898.484375 459.144531 897.019531 460.589844 C 895.558594 462.035156 894.0625 463.441406 892.53125 464.816406 C 891 466.1875 889.433594 467.523438 887.839844 468.820312 C 886.242188 470.117188 884.617188 471.371094 882.960938 472.589844 C 881.300781 473.808594 879.617188 474.984375 877.902344 476.121094 C 876.1875 477.253906 874.449219 478.347656 872.679688 479.398438 C 870.914062 480.449219 869.121094 481.457031 867.304688 482.421875 C 865.488281 483.386719 863.652344 484.304688 861.792969 485.179688 C 859.929688 486.054688 858.050781 486.882812 856.148438 487.664062 C 854.25 488.449219 852.328125 489.183594 850.394531 489.875 C 848.457031 490.5625 846.503906 491.207031 844.535156 491.800781 C 842.570312 492.394531 840.589844 492.941406 838.59375 493.441406 C 836.597656 493.941406 834.59375 494.390625 832.578125 494.792969 C 830.5625 495.191406 828.539062 495.542969 826.503906 495.847656 C 824.472656 496.148438 822.433594 496.402344 820.386719 496.605469 C 818.339844 496.8125 816.292969 496.964844 814.238281 497.070312 C 812.1875 497.171875 810.132812 497.226562 808.078125 497.230469 C 806.019531 497.214844 803.96875 497.148438 801.914062 497.03125 C 799.863281 496.910156 797.8125 496.746094 795.769531 496.527344 C 793.722656 496.308594 791.6875 496.042969 789.65625 495.722656 C 787.625 495.40625 785.601562 495.039062 783.589844 494.625 C 781.574219 494.207031 779.574219 493.742188 777.582031 493.226562 C 775.589844 492.714844 773.613281 492.152344 771.652344 491.539062 C 769.6875 490.929688 767.742188 490.269531 765.808594 489.5625 C 763.878906 488.859375 761.964844 488.105469 760.070312 487.304688 C 758.179688 486.503906 756.304688 485.660156 754.453125 484.765625 C 752.597656 483.875 750.769531 482.941406 748.960938 481.957031 C 747.152344 480.976562 745.371094 479.953125 743.613281 478.882812 C 741.855469 477.816406 740.128906 476.707031 738.425781 475.550781 C 736.722656 474.398438 735.046875 473.207031 733.402344 471.96875 C 731.757812 470.734375 730.144531 469.460938 728.5625 468.148438 C 726.980469 466.832031 725.429688 465.480469 723.914062 464.09375 C 722.398438 462.703125 720.917969 461.277344 719.46875 459.816406 C 718.023438 458.351562 716.613281 456.855469 715.238281 455.324219 C 713.867188 453.792969 712.53125 452.230469 711.234375 450.632812 C 709.9375 449.035156 708.679688 447.410156 707.460938 445.75 C 706.242188 444.09375 705.066406 442.40625 703.933594 440.691406 C 702.796875 438.976562 701.703125 437.234375 700.652344 435.464844 C 699.601562 433.695312 698.597656 431.902344 697.632812 430.082031 C 696.671875 428.265625 695.753906 426.425781 694.878906 424.5625 C 694.007812 422.699219 693.179688 420.8125 692.402344 418.910156 C 691.621094 417.007812 690.886719 415.085938 690.199219 413.144531 C 689.511719 411.207031 688.875 409.25 688.28125 407.28125 C 687.691406 405.308594 687.148438 403.324219 686.652344 401.328125 C 686.160156 399.332031 685.714844 397.320312 685.316406 395.304688 C 684.921875 393.285156 684.574219 391.257812 684.277344 389.21875 C 683.980469 387.183594 683.730469 385.140625 683.535156 383.09375 C 683.335938 381.042969 683.1875 378.992188 683.089844 376.9375 C 682.992188 374.882812 682.945312 372.824219 682.949219 370.765625 Z M 682.949219 370.765625 " fill-opacity="1" fill-rule="nonzero"/>
	<path fill="#c25328" d="M 1132.621094 372.046875 C 1132.621094 405.035156 1132.042969 438.023438 1132.4375 471.011719 C 1132.683594 492.351562 1123.910156 498.175781 1103.257812 492.960938 C 1047.824219 479.03125 1010.328125 428.085938 1011.882812 366.683594 C 1013.34375 308.113281 1052.847656 261.378906 1108.742188 250.402344 C 1126.683594 246.863281 1133.109375 254.03125 1132.894531 270.460938 C 1132.894531 304.324219 1132.785156 338.1875 1132.5625 372.046875 Z M 1132.621094 372.046875 " fill-opacity="1" fill-rule="nonzero"/>
	<path fill="#c98d2b" d="M 485.542969 368.359375 C 485.542969 334.546875 486 300.738281 485.753906 266.957031 C 485.753906 249.242188 493.097656 244.609375 510.121094 248.113281 C 565.195312 259.335938 606.648438 311.621094 606.191406 370.949219 C 605.734375 430.28125 563.882812 481.925781 508.722656 492.324219 C 490.8125 495.707031 484.78125 489.273438 484.964844 472.382812 C 485.511719 437.71875 485.449219 403.023438 485.542969 368.359375 Z M 485.542969 368.359375 " fill-opacity="1" fill-rule="nonzero"/>
	<path fill="#7f310c" d="M 1367.890625 257.199219 C 1326.953125 285.796875 1299.355469 320.859375 1298.808594 372.75 C 1298.261719 424.640625 1323.175781 461.164062 1364.539062 489.152344 C 1335.878906 512.597656 1265.121094 489.945312 1235.695312 452.960938 C 1199.359375 407.230469 1198.261719 340.15625 1235.695312 293.96875 C 1268.410156 253.390625 1326.953125 235.796875 1367.890625 257.199219 Z M 1367.890625 257.199219 " fill-opacity="1" fill-rule="nonzero"/>
	<path fill="#f4a935" d="M 247.835938 485.949219 C 291.667969 456.804688 318.257812 421.195312 319.019531 369.273438 C 319.78125 317.351562 293.953125 281.316406 252.007812 253.113281 C 290.601562 232.871094 347.53125 249.699219 380.304688 287.960938 C 416.855469 330.644531 418.898438 399.761719 384.996094 445.128906 C 352.921875 487.933594 294.804688 506.652344 247.835938 485.949219 Z M 247.835938 485.949219 " fill-opacity="1" fill-rule="nonzero"/>
	<g clip-path="url(#d09fb22d83)">
		<path fill="#fcd891" d="M 44.367188 246.195312 C 93.773438 245.125 131.054688 265.308594 154.355469 307.167969 C 179.394531 351.988281 177.355469 397.445312 148.265625 439.914062 C 124.8125 474.457031 91.457031 492.960938 47.140625 490.921875 C 100.015625 465.339844 134.4375 426.226562 133.675781 366.378906 C 132.914062 306.53125 96.210938 270.644531 44.367188 246.195312 Z M 44.367188 246.195312 " fill-opacity="1" fill-rule="nonzero"/>
	</g>
	<g clip-path="url(#87bc312964)">
		<path fill="#4e1300" d="M 1575.929688 252.871094 C 1518.421875 276.46875 1484.550781 314.761719 1484.183594 374.089844 C 1483.820312 433.421875 1517.691406 470.460938 1572.515625 491.773438 C 1548.574219 503.96875 1511.933594 490.980469 1482.996094 461.988281 C 1480.699219 459.679688 1478.496094 457.285156 1476.386719 454.804688 C 1474.273438 452.324219 1472.265625 449.765625 1470.355469 447.125 C 1468.445312 444.488281 1466.644531 441.777344 1464.945312 439 C 1463.25 436.21875 1461.664062 433.375 1460.191406 430.472656 C 1458.71875 427.566406 1457.359375 424.609375 1456.121094 421.597656 C 1454.878906 418.585938 1453.757812 415.527344 1452.753906 412.429688 C 1451.753906 409.328125 1450.875 406.195312 1450.121094 403.027344 C 1449.363281 399.855469 1448.734375 396.664062 1448.230469 393.445312 C 1447.722656 390.226562 1447.347656 386.992188 1447.09375 383.746094 C 1446.84375 380.496094 1446.71875 377.242188 1446.722656 373.984375 C 1446.726562 370.726562 1446.859375 367.476562 1447.121094 364.226562 C 1447.378906 360.980469 1447.765625 357.75 1448.277344 354.53125 C 1448.792969 351.3125 1449.429688 348.121094 1450.191406 344.953125 C 1450.957031 341.789062 1451.84375 338.65625 1452.851562 335.558594 C 1453.863281 332.460938 1454.992188 329.410156 1456.242188 326.398438 C 1457.488281 323.390625 1458.855469 320.4375 1460.335938 317.535156 C 1483.027344 273.265625 1530.269531 245.003906 1575.929688 252.871094 Z M 1575.929688 252.871094 " fill-opacity="1" fill-rule="nonzero"/>
	</g>
</svg>
